<svg xmlns="http://www.w3.org/2000/svg" xmlns:xlink="http://www.w3.org/1999/xlink" width="607" zoomAndPan="magnify" viewBox="0 0 455.25 299.999988" height="400" preserveAspectRatio="xMidYMid meet" version="1.0"><defs><clipPath id="id1"><path d="M 156.691406 89 L 297.460938 89 L 297.460938 249.667969 L 156.691406 249.667969 Z M 156.691406 89 " clip-rule="nonzero"/></clipPath><clipPath id="id2"><path d="M 169 50.496094 L 196 50.496094 L 196 78 L 169 78 Z M 169 50.496094 " clip-rule="nonzero"/></clipPath><clipPath id="id3"><path d="M 199 50.496094 L 225 50.496094 L 225 78 L 199 78 Z M 199 50.496094 " clip-rule="nonzero"/></clipPath><clipPath id="id4"><path d="M 228 50.496094 L 259 50.496094 L 259 78 L 228 78 Z M 228 50.496094 " clip-rule="nonzero"/></clipPath><clipPath id="id5"><path d="M 263 50.496094 L 285 50.496094 L 285 78 L 263 78 Z M 263 50.496094 " clip-rule="nonzero"/></clipPath></defs><g clip-path="url(#id1)"><path fill="#e44d26" d="M 297.425781 89.636719 L 284.613281 233.640625 L 227.015625 249.660156 L 169.578125 233.664062 L 156.78125 89.636719 L 297.421875 89.632812 L 297.425781 89.632812 Z M 297.425781 89.636719 " fill-opacity="1" fill-rule="nonzero"/></g><path fill="#f16529" d="M 227.105469 237.414062 L 273.644531 224.472656 L 284.59375 101.414062 L 227.105469 101.410156 Z M 227.105469 237.414062 " fill-opacity="1" fill-rule="nonzero"/><path fill="#ebebeb" d="M 202.195312 136.738281 L 227.105469 136.738281 L 227.105469 119.074219 L 182.953125 119.074219 L 183.375 123.8125 L 187.703125 172.492188 L 227.105469 172.492188 L 227.105469 154.832031 L 203.804688 154.832031 Z M 202.195312 136.738281 " fill-opacity="1" fill-rule="nonzero"/><path fill="#ebebeb" d="M 206.164062 181.324219 L 188.488281 181.324219 L 190.957031 209.0625 L 227.019531 219.109375 L 227.105469 219.085938 L 227.105469 200.707031 L 227.027344 200.726562 L 207.417969 195.414062 Z M 206.164062 181.324219 " fill-opacity="1" fill-rule="nonzero"/><g clip-path="url(#id2)"><path fill="#000000" d="M 169.867188 50.496094 L 178.816406 50.496094 L 178.816406 59.363281 L 187 59.363281 L 187 50.496094 L 195.949219 50.496094 L 195.949219 77.351562 L 187 77.351562 L 187 68.359375 L 178.816406 68.359375 L 178.816406 77.351562 L 169.867188 77.351562 Z M 169.867188 50.496094 " fill-opacity="1" fill-rule="nonzero"/></g><g clip-path="url(#id3)"><path fill="#000000" d="M 207.714844 59.402344 L 199.835938 59.402344 L 199.835938 50.496094 L 224.546875 50.496094 L 224.546875 59.402344 L 216.660156 59.402344 L 216.660156 77.351562 L 207.714844 77.351562 Z M 207.714844 59.402344 " fill-opacity="1" fill-rule="nonzero"/></g><g clip-path="url(#id4)"><path fill="#000000" d="M 228.464844 50.496094 L 237.792969 50.496094 L 243.53125 59.933594 L 249.265625 50.496094 L 258.601562 50.496094 L 258.601562 77.351562 L 249.691406 77.351562 L 249.691406 64.039062 L 243.53125 73.589844 L 243.378906 73.589844 L 237.21875 64.039062 L 237.21875 77.351562 L 228.464844 77.351562 Z M 228.464844 50.496094 " fill-opacity="1" fill-rule="nonzero"/></g><g clip-path="url(#id5)"><path fill="#000000" d="M 263.054688 50.496094 L 272.003906 50.496094 L 272.003906 68.476562 L 284.589844 68.476562 L 284.589844 77.351562 L 263.054688 77.351562 Z M 263.054688 50.496094 " fill-opacity="1" fill-rule="nonzero"/></g><path fill="#ffffff" d="M 227.042969 172.492188 L 248.726562 172.492188 L 246.679688 195.402344 L 227.042969 200.722656 L 227.042969 219.097656 L 263.136719 209.0625 L 263.402344 206.078125 L 267.542969 159.570312 L 267.972656 154.832031 L 227.042969 154.832031 Z M 227.042969 172.492188 " fill-opacity="1" fill-rule="nonzero"/><path fill="#ffffff" d="M 227.042969 136.695312 L 227.042969 136.738281 L 269.570312 136.738281 L 269.925781 132.769531 L 270.730469 123.8125 L 271.148438 119.074219 L 227.042969 119.074219 Z M 227.042969 136.695312 " fill-opacity="1" fill-rule="nonzero"/></svg>