<svg xmlns="http://www.w3.org/2000/svg" xmlns:xlink="http://www.w3.org/1999/xlink" width="1300" zoomAndPan="magnify" viewBox="0 0 974.88 337.499995" height="450" preserveAspectRatio="xMidYMid meet" version="1.0"><defs><g/><clipPath id="id1"><path d="M 620.433594 138.816406 L 660.011719 138.816406 L 660.011719 220.300781 L 620.433594 220.300781 Z M 620.433594 138.816406 " clip-rule="nonzero"/></clipPath><clipPath id="id2"><path d="M 618.636719 66.332031 L 736.597656 66.332031 L 736.597656 190.5 L 618.636719 190.5 Z M 618.636719 66.332031 " clip-rule="nonzero"/></clipPath><clipPath id="id3"><path d="M 618.636719 66.332031 L 736.597656 66.332031 L 736.597656 190.5 L 618.636719 190.5 Z M 618.636719 66.332031 " clip-rule="nonzero"/></clipPath></defs><g clip-path="url(#id1)"><path fill="#cfcfcf" d="M 620.433594 138.816406 L 660.011719 138.816406 L 660.011719 220.296875 L 620.433594 220.296875 L 620.433594 138.816406 " fill-opacity="1" fill-rule="nonzero"/></g><g clip-path="url(#id2)"><path fill="#dc6b01" d="M 736.25 95.664062 C 736.496094 94.855469 736.265625 93.960938 735.257812 93.484375 C 716.425781 84.574219 697.59375 75.664062 678.757812 66.753906 C 678.363281 66.566406 677.972656 66.507812 677.613281 66.542969 C 677.214844 66.476562 676.78125 66.527344 676.335938 66.734375 C 657.789062 75.441406 639.242188 84.148438 620.691406 92.851562 C 619.652344 92.867188 618.625 93.542969 618.636719 94.886719 C 618.777344 115.738281 618.925781 136.585938 619.066406 157.433594 C 619.074219 158.03125 619.277344 158.496094 619.597656 158.832031 C 619.652344 159.402344 619.96875 159.945312 620.640625 160.304688 C 639.023438 170.109375 657.402344 179.914062 675.789062 189.71875 C 676.011719 189.835938 676.234375 189.914062 676.453125 189.953125 C 677.015625 190.28125 677.730469 190.363281 678.46875 189.988281 C 697.042969 180.554688 715.621094 171.121094 734.195312 161.6875 C 734.402344 161.578125 734.578125 161.453125 734.726562 161.3125 C 735.511719 161.082031 736.15625 160.4375 736.164062 159.375 C 736.300781 138.527344 736.441406 117.675781 736.574219 96.828125 C 736.582031 96.355469 736.457031 95.96875 736.25 95.664062 Z M 677.070312 145.625 C 666.476562 145.625 657.859375 136.996094 657.859375 126.394531 C 657.859375 115.792969 666.476562 107.164062 677.070312 107.164062 C 687.660156 107.164062 696.28125 115.792969 696.28125 126.394531 C 696.28125 136.996094 687.660156 145.625 677.070312 145.625 Z M 677.070312 145.625 " fill-opacity="1" fill-rule="nonzero"/></g><path fill="#dc6b01" d="M 698.699219 117.394531 C 698.6875 117.367188 698.675781 117.347656 698.667969 117.320312 L 698.703125 117.34375 C 698.703125 117.34375 698.699219 117.359375 698.699219 117.394531 Z M 677.128906 99.417969 C 662.34375 99.417969 650.316406 111.457031 650.316406 126.253906 C 650.316406 135.4375 654.949219 143.554688 661.996094 148.394531 C 662.941406 147.496094 663.761719 146.722656 664.40625 146.113281 C 657.9375 141.933594 653.644531 134.65625 653.644531 126.390625 C 653.644531 113.460938 664.152344 102.945312 677.066406 102.945312 C 685.476562 102.945312 692.859375 107.402344 696.992188 114.082031 L 699.535156 111.535156 C 694.742188 104.242188 686.488281 99.417969 677.128906 99.417969 Z M 658.890625 151.359375 C 651.148438 145.707031 646.105469 136.5625 646.105469 126.257812 C 646.105469 109.132812 660.023438 95.203125 677.128906 95.203125 C 687.648438 95.203125 696.957031 100.46875 702.570312 108.503906 L 720.09375 90.960938 C 705.90625 84.246094 691.714844 77.535156 677.523438 70.820312 C 669.5625 74.558594 661.597656 78.292969 653.636719 82.03125 L 623.023438 119.832031 C 623.105469 132.199219 623.191406 144.566406 623.277344 156.933594 C 629.808594 160.417969 636.339844 163.898438 642.871094 167.382812 C 645.296875 164.472656 653.035156 156.953125 658.890625 151.359375 Z M 658.890625 151.359375 " fill-opacity="1" fill-rule="nonzero"/><path fill="#dc6b01" d="M 696.996094 114.082031 L 699.539062 111.539062 C 702.320312 115.765625 703.941406 120.824219 703.941406 126.257812 C 703.941406 141.054688 691.910156 153.09375 677.128906 153.09375 C 671.519531 153.09375 666.304688 151.359375 661.996094 148.398438 C 662.941406 147.5 663.761719 146.722656 664.40625 146.113281 C 668.0625 148.472656 672.40625 149.84375 677.070312 149.84375 C 689.984375 149.84375 700.492188 139.320312 700.492188 126.394531 C 700.492188 123.207031 699.855469 120.167969 698.699219 117.394531 C 698.699219 117.359375 698.703125 117.34375 698.703125 117.34375 L 698.667969 117.320312 C 698.195312 116.195312 697.632812 115.113281 696.996094 114.082031 Z M 702.570312 108.5 C 706.089844 113.535156 708.15625 119.65625 708.15625 126.253906 C 708.15625 143.378906 694.238281 157.308594 677.132812 157.308594 C 670.320312 157.308594 664.015625 155.097656 658.890625 151.359375 C 653.039062 156.953125 645.296875 164.472656 642.871094 167.382812 C 654.382812 173.523438 665.894531 179.664062 677.410156 185.804688 C 695.59375 176.570312 713.777344 167.335938 731.960938 158.097656 C 732.097656 137.671875 732.230469 117.25 732.367188 96.824219 C 732.367188 96.804688 732.367188 96.785156 732.367188 96.761719 C 728.277344 94.828125 724.1875 92.890625 720.09375 90.957031 Z M 622.859375 96.472656 C 622.910156 104.261719 622.964844 112.042969 623.019531 119.832031 L 653.636719 82.027344 C 643.378906 86.84375 633.121094 91.660156 622.859375 96.472656 Z M 622.859375 96.472656 " fill-opacity="1" fill-rule="nonzero"/><g clip-path="url(#id3)"><path fill="#dc6b01" d="M 736.25 95.664062 C 736.496094 94.855469 736.265625 93.960938 735.257812 93.484375 C 716.425781 84.574219 697.59375 75.664062 678.757812 66.753906 C 678.363281 66.566406 677.972656 66.507812 677.613281 66.542969 C 677.214844 66.476562 676.78125 66.527344 676.335938 66.734375 C 657.789062 75.441406 639.242188 84.148438 620.691406 92.851562 C 619.652344 92.867188 618.625 93.542969 618.636719 94.886719 C 618.777344 115.738281 618.925781 136.585938 619.066406 157.433594 C 619.074219 158.03125 619.277344 158.496094 619.597656 158.832031 C 619.652344 159.402344 619.96875 159.945312 620.640625 160.304688 C 639.023438 170.109375 657.402344 179.914062 675.789062 189.71875 C 676.011719 189.835938 676.234375 189.914062 676.453125 189.953125 C 677.015625 190.28125 677.730469 190.363281 678.46875 189.988281 C 697.042969 180.554688 715.621094 171.121094 734.195312 161.6875 C 734.402344 161.578125 734.578125 161.453125 734.726562 161.3125 C 735.511719 161.082031 736.15625 160.4375 736.164062 159.375 C 736.300781 138.527344 736.441406 117.675781 736.574219 96.828125 C 736.582031 96.355469 736.457031 95.96875 736.25 95.664062 Z M 732.367188 96.824219 C 732.230469 117.25 732.097656 137.671875 731.960938 158.097656 C 713.777344 167.332031 695.59375 176.566406 677.410156 185.804688 C 665.898438 179.664062 654.386719 173.523438 642.871094 167.382812 C 636.339844 163.898438 629.808594 160.417969 623.277344 156.933594 C 623.191406 144.566406 623.105469 132.199219 623.023438 119.832031 C 622.96875 112.042969 622.914062 104.261719 622.863281 96.472656 C 633.121094 91.660156 643.382812 86.84375 653.640625 82.027344 C 661.601562 78.292969 669.5625 74.554688 677.527344 70.820312 C 691.714844 77.53125 705.90625 84.246094 720.097656 90.960938 C 724.1875 92.894531 728.277344 94.832031 732.371094 96.765625 C 732.367188 96.785156 732.367188 96.804688 732.367188 96.824219 Z M 677.128906 95.199219 C 660.023438 95.199219 646.105469 109.128906 646.105469 126.253906 C 646.105469 136.558594 651.144531 145.707031 658.890625 151.359375 C 664.011719 155.097656 670.320312 157.308594 677.132812 157.308594 C 694.238281 157.308594 708.15625 143.378906 708.15625 126.253906 C 708.15625 119.65625 706.089844 113.535156 702.570312 108.5 C 696.957031 100.464844 687.648438 95.199219 677.128906 95.199219 Z M 703.945312 126.253906 C 703.945312 141.054688 691.914062 153.09375 677.132812 153.09375 C 671.523438 153.09375 666.308594 151.359375 662 148.394531 C 654.953125 143.554688 650.320312 135.4375 650.320312 126.253906 C 650.320312 111.453125 662.347656 99.417969 677.132812 99.417969 C 686.492188 99.417969 694.742188 104.242188 699.539062 111.535156 C 702.320312 115.765625 703.945312 120.824219 703.945312 126.253906 Z M 677.070312 149.84375 C 689.984375 149.84375 700.492188 139.320312 700.492188 126.394531 C 700.492188 123.207031 699.855469 120.167969 698.699219 117.394531 C 698.6875 117.367188 698.675781 117.347656 698.667969 117.320312 C 698.195312 116.195312 697.632812 115.113281 696.996094 114.082031 C 692.863281 107.40625 685.476562 102.949219 677.070312 102.949219 C 664.152344 102.949219 653.644531 113.464844 653.644531 126.394531 C 653.644531 134.65625 657.9375 141.9375 664.410156 146.113281 C 668.0625 148.472656 672.40625 149.84375 677.070312 149.84375 Z M 696.28125 126.394531 C 696.28125 136.996094 687.660156 145.625 677.070312 145.625 C 666.476562 145.625 657.859375 136.996094 657.859375 126.394531 C 657.859375 115.792969 666.476562 107.164062 677.070312 107.164062 C 687.660156 107.164062 696.28125 115.789062 696.28125 126.394531 Z M 696.28125 126.394531 " fill-opacity="1" fill-rule="nonzero"/></g><g fill="#cfcfcf" fill-opacity="1"><g transform="translate(175.236132, 195.979454)"><g><path d="M 94.195312 -72.25 L 78.984375 -5.757812 L 61.382812 -72.25 L 47.261719 -72.25 L 29.660156 -5.757812 L 14.449219 -72.25 L 5.324219 -72.25 L 21.835938 0 L 37.046875 0 L 54.320312 -65.402344 L 71.488281 0 L 86.699219 0 L 103.210938 -72.25 Z M 94.195312 -72.25 "/></g></g></g><g fill="#cfcfcf" fill-opacity="1"><g transform="translate(277.789193, 195.979454)"><g><path d="M 16.40625 -7.277344 L 16.40625 -33.570312 L 57.582031 -33.570312 L 57.582031 -40.742188 L 16.40625 -40.742188 L 16.40625 -64.96875 L 60.839844 -64.96875 L 60.839844 -72.25 L 7.386719 -72.25 L 7.386719 0 L 61.167969 0 L 61.167969 -7.277344 Z M 16.40625 -7.277344 "/></g></g></g><g fill="#cfcfcf" fill-opacity="1"><g transform="translate(339.820315, 195.979454)"><g><path d="M 50.085938 -37.375 C 57.363281 -38.675781 63.664062 -43.890625 63.664062 -54.320312 C 63.664062 -64.316406 58.34375 -72.25 42.914062 -72.25 L 7.386719 -72.25 L 7.386719 0 L 42.695312 0 C 57.691406 0 64.859375 -7.605469 64.859375 -19.449219 C 64.859375 -30.855469 58.015625 -36.394531 50.085938 -37.375 Z M 41.066406 -64.96875 C 51.171875 -64.96875 54.214844 -61.167969 54.214844 -53.019531 C 54.214844 -45.085938 50.085938 -40.851562 39.871094 -40.851562 L 16.40625 -40.851562 L 16.40625 -64.96875 Z M 41.828125 -7.277344 L 16.40625 -7.277344 L 16.40625 -34.003906 L 40.089844 -34.003906 C 50.953125 -34.003906 55.410156 -29.007812 55.410156 -20.425781 C 55.410156 -12.710938 51.933594 -7.277344 41.828125 -7.277344 Z M 41.828125 -7.277344 "/></g></g></g><g fill="#cfcfcf" fill-opacity="1"><g transform="translate(404.458756, 195.979454)"><g><path d="M 37.375 -72.25 L 7.386719 -72.25 L 7.386719 0 L 37.375 0 C 61.058594 0 71.054688 -16.40625 71.054688 -36.289062 C 71.054688 -55.953125 61.058594 -72.25 37.375 -72.25 Z M 35.742188 -7.277344 L 16.40625 -7.277344 L 16.40625 -64.96875 L 35.742188 -64.96875 C 55.082031 -64.96875 61.601562 -54.648438 61.601562 -36.289062 C 61.601562 -17.925781 54.972656 -7.277344 35.742188 -7.277344 Z M 35.742188 -7.277344 "/></g></g></g><g fill="#cfcfcf" fill-opacity="1"><g transform="translate(474.963608, 195.979454)"><g><path d="M 16.40625 -7.277344 L 16.40625 -33.570312 L 57.582031 -33.570312 L 57.582031 -40.742188 L 16.40625 -40.742188 L 16.40625 -64.96875 L 60.839844 -64.96875 L 60.839844 -72.25 L 7.386719 -72.25 L 7.386719 0 L 61.167969 0 L 61.167969 -7.277344 Z M 16.40625 -7.277344 "/></g></g></g><g fill="#cfcfcf" fill-opacity="1"><g transform="translate(536.994721, 195.979454)"><g><path d="M 60.296875 -72.25 L 39.980469 -16.515625 C 38.894531 -13.363281 37.808594 -10.105469 36.9375 -6.953125 C 36.070312 -10.105469 34.984375 -13.363281 33.789062 -16.515625 L 13.582031 -72.25 L 4.128906 -72.25 L 30.3125 0 L 43.347656 0 L 69.421875 -72.25 Z M 60.296875 -72.25 "/></g></g></g><g fill="#cfcfcf" fill-opacity="1"><g transform="translate(689.092016, 220.143422)"><g><path d="M 79.714844 -105.597656 L 79.714844 -65.582031 L 39.699219 -65.582031 L 39.699219 -105.597656 L 7.941406 -105.597656 L 7.941406 0 L 39.699219 0 L 39.699219 -40.96875 L 79.714844 -40.96875 L 79.714844 0 L 111.472656 0 L 111.472656 -105.597656 Z M 79.714844 -105.597656 "/></g></g></g></svg>